<svg xmlns="http://www.w3.org/2000/svg" xmlns:xlink="http://www.w3.org/1999/xlink" width="512" zoomAndPan="magnify" viewBox="0 0 384 383.999986" height="512" preserveAspectRatio="xMidYMid meet" version="1.0"><defs><clipPath id="c79bedcd0b"><path d="M 0 0 L 384 0 L 384 384 L 0 384 Z M 0 0 " clip-rule="nonzero"/></clipPath><clipPath id="e9b86069be"><rect x="0" width="384" y="0" height="384"/></clipPath><clipPath id="2bd15bd99c"><path d="M 87.664062 68.34375 L 296.164062 68.34375 L 296.164062 315.84375 L 87.664062 315.84375 Z M 87.664062 68.34375 " clip-rule="nonzero"/></clipPath></defs><rect x="-38.4" width="460.8" fill="#ffffff" y="-38.399999" height="460.799983" fill-opacity="1"/><rect x="-38.4" width="460.8" fill="#ffffff" y="-38.399999" height="460.799983" fill-opacity="1"/><g><g clip-path="url(#e9b86069be)"><g clip-path="url(#c79bedcd0b)"><rect x="-84.48" width="552.96" fill="#000000" height="552.959979" y="-84.479997" fill-opacity="1"/></g></g></g><g clip-path="url(#2bd15bd99c)"><path fill="#ffffff" d="M 168.804688 315.679688 C 124.066406 315.679688 87.667969 279.277344 87.667969 234.53125 L 87.667969 68.355469 L 151.101562 68.355469 L 151.101562 235.574219 C 151.101562 244.761719 158.578125 252.238281 167.765625 252.238281 L 254.554688 252.238281 L 296.285156 315.679688 Z M 225.664062 223.691406 L 225.664062 68.355469 L 289.097656 68.355469 L 289.097656 223.691406 Z M 225.664062 223.691406 " fill-opacity="1" fill-rule="nonzero"/></g></svg>